<svg width="22" height="22" viewBox="0 0 22 22" fill="none" xmlns="http://www.w3.org/2000/svg">
<g clip-path="url(#clip0_282_76)">
<path d="M11.5 1V21.1667" stroke="#4D4D4D" stroke-width="2" stroke-linecap="round" stroke-linejoin="round"/>
<path d="M16.0833 4.66797H9.20833C8.35743 4.66797 7.54138 5.00599 6.9397 5.60767C6.33802 6.20935 6 7.0254 6 7.8763C6 8.7272 6.33802 9.54326 6.9397 10.1449C7.54138 10.7466 8.35743 11.0846 9.20833 11.0846H13.7917C14.6426 11.0846 15.4586 11.4227 16.0603 12.0243C16.662 12.626 17 13.4421 17 14.293C17 15.1439 16.662 15.9599 16.0603 16.5616C15.4586 17.1633 14.6426 17.5013 13.7917 17.5013H6" stroke="#4D4D4D" stroke-width="2" stroke-linecap="round" stroke-linejoin="round"/>
</g>
<defs>
<clipPath id="clip0_282_76">
<rect width="22" height="22" fill="white"/>
</clipPath>
</defs>
</svg>
